<svg width="575" height="250" viewBox="0 0 575 250" fill="none" xmlns="http://www.w3.org/2000/svg">
<g clip-path="url(#clip0_163_958)">
<path d="M25.8014 224.27H25.1927V244.778H0.541992V17.6729H26.1057V100.768H26.7143C33.6125 92.6654 42.5395 86.3864 53.4954 81.9305C64.553 77.4746 76.5229 75.2463 89.4066 75.2463C105.739 75.2463 120.55 79.0442 133.839 86.64C147.127 94.235 157.526 104.667 165.032 117.933C172.539 131.2 176.293 145.986 176.293 162.291C176.293 179.102 172.488 194.141 164.88 207.408C157.373 220.674 146.874 231.005 133.382 238.398C119.992 245.79 104.825 249.487 87.8851 249.487C75.0013 249.487 63.0821 247.259 52.1259 242.803C41.2715 238.347 32.4966 232.169 25.8014 224.27ZM150.729 162.291C150.729 142.745 144.947 127.098 133.382 115.351C121.919 103.501 106.753 97.5771 87.8851 97.5771C70.5379 97.5771 55.8793 102.692 43.909 112.92C32.0402 123.048 26.1057 135.352 26.1057 149.834V174.747C26.1057 189.23 31.9387 201.585 43.6047 211.813C55.2707 221.941 69.4729 227.004 86.2108 227.004C105.993 227.004 121.665 221.181 133.23 209.535C144.896 197.787 150.729 182.039 150.729 162.291Z" fill="white"/>
<path d="M221.017 200.572C221.017 186.09 226.596 174.899 237.755 167C248.914 159.101 267.63 153.075 293.904 148.923C311.454 145.986 323.728 142.644 330.728 138.897C337.829 135.149 341.38 130.086 341.38 123.706C341.38 115.807 337.576 109.477 329.967 104.717C322.46 99.9571 312.417 97.5771 299.838 97.5771C285.535 97.5771 273.717 101.071 264.384 108.059C255.051 114.946 249.117 124.617 246.581 137.073L221.93 131.909C224.974 114.794 233.494 101.071 247.494 90.7412C261.492 80.4116 278.941 75.2463 299.838 75.2463C320.837 75.2463 337.576 80.158 350.053 89.9821C362.53 99.7043 368.769 112.717 368.769 129.023V244.778H344.118V223.966H343.51C337.829 231.663 329.409 237.841 318.25 242.499C307.193 247.158 295.172 249.487 282.187 249.487C263.116 249.487 248.153 245.132 237.299 236.423C226.444 227.713 221.017 215.763 221.017 200.572ZM343.205 187.204V151.809H342.597C340.263 155.961 335.8 159.354 329.207 161.987C322.612 164.62 312.417 167.101 298.621 169.431C280.057 172.57 266.768 176.52 258.754 181.279C250.842 186.039 246.885 192.47 246.885 200.572C246.885 209.484 250.182 216.067 256.776 220.321C263.471 224.573 273.666 226.701 287.361 226.701C296.998 226.701 306.128 224.878 314.751 221.232C323.374 217.586 330.272 212.725 335.445 206.649C340.619 200.471 343.205 193.99 343.205 187.204Z" fill="white"/>
<path d="M430.087 244.642L409.275 231.658L554.165 0.175781L574.977 13.1588L430.087 244.642Z" fill="white" stroke="white"/>
<path d="M198.728 50.7223C206.796 50.7223 213.336 44.1931 213.336 36.139C213.336 28.0848 206.796 21.5557 198.728 21.5557C190.66 21.5557 184.12 28.0848 184.12 36.139C184.12 44.1931 190.66 50.7223 198.728 50.7223Z" fill="white"/>
<path d="M211.389 79.8889H185.679V244.778H211.389V79.8889Z" fill="white" stroke="white"/>
</g>
<defs>
<clipPath id="clip0_163_958">
<rect width="574.435" height="249.311" fill="white" transform="translate(0.541992 0.175781)"/>
</clipPath>
</defs>
</svg>
