<svg width="156" height="249" viewBox="0 0 156 249" fill="none" xmlns="http://www.w3.org/2000/svg">
<g clip-path="url(#clip0_6_15)">
<path d="M9.20801 199.931C9.20801 185.484 14.769 174.321 25.89 166.441C37.012 158.561 55.665 152.549 81.851 148.407C99.341 145.478 111.575 142.144 118.551 138.405C125.628 134.667 129.167 129.616 129.167 123.251C129.167 115.371 125.376 109.057 117.793 104.309C110.311 99.5601 100.302 97.1859 87.765 97.1859C73.51 97.1859 61.732 100.671 52.429 107.643C43.128 114.512 37.214 124.161 34.686 136.587L10.118 131.435C13.152 114.361 21.644 100.671 35.596 90.3665C49.548 80.0619 66.938 74.9092 87.765 74.9092C108.693 74.9092 125.376 79.809 137.811 89.6093C150.247 99.308 156.465 112.289 156.465 128.555V244.03H131.897V223.269H131.29C125.628 230.947 117.237 237.11 106.115 241.757C95.095 246.404 83.115 248.728 70.173 248.728C51.166 248.728 36.253 244.384 25.435 235.695C14.618 227.007 9.20801 215.085 9.20801 199.931ZM130.987 186.596V151.287H130.38C128.055 155.428 123.606 158.813 117.035 161.44C110.463 164.066 100.302 166.542 86.552 168.865C68.05 171.997 54.805 175.938 46.819 180.685C38.933 185.434 34.989 191.849 34.989 199.931C34.989 208.822 38.275 215.389 44.847 219.632C51.52 223.875 61.681 225.997 75.33 225.997C84.934 225.997 94.034 224.178 102.627 220.541C111.221 216.904 118.096 212.055 123.252 205.993C128.409 199.831 130.987 193.365 130.987 186.596Z" fill="black"/>
</g>
<defs>
<clipPath id="clip0_6_15">
<rect width="156" height="249" fill="white"/>
</clipPath>
</defs>
</svg>
