<svg width="183" height="249" viewBox="0 0 183 249" fill="none" xmlns="http://www.w3.org/2000/svg">
<path d="M25.6483 223.572H25.0416V244.03H0.473633V17.4751H25.9516V100.369H26.5582C33.4332 92.2861 42.3302 86.0223 53.2493 81.5772C64.2699 77.1321 76.1995 74.9091 89.04 74.9091C105.317 74.9091 120.079 78.6978 133.323 86.2752C146.567 93.8518 156.931 104.258 164.412 117.493C171.893 130.727 175.634 145.478 175.634 161.743C175.634 178.514 171.843 193.516 164.261 206.751C156.779 219.985 146.315 230.291 132.868 237.665C119.523 245.04 104.407 248.728 87.5236 248.728C74.6831 248.728 62.8039 246.505 51.8844 242.06C41.0664 237.615 32.321 231.452 25.6483 223.572ZM150.157 161.743C150.157 142.244 144.394 126.636 132.868 114.917C121.443 103.096 106.328 97.1858 87.5236 97.1858C70.2347 97.1858 55.6252 102.288 43.6951 112.492C31.8661 122.595 25.9516 134.869 25.9516 149.317V174.169C25.9516 188.616 31.765 200.942 43.3918 211.145C55.0187 221.248 69.1733 226.299 85.855 226.299C105.57 226.299 121.191 220.49 132.717 208.873C144.343 197.153 150.157 181.443 150.157 161.743Z" fill="white"/>
</svg>
